<?xml version="1.0" standalone="no"?>
<!DOCTYPE svg PUBLIC "-//W3C//DTD SVG 20010904//EN"
 "http://www.w3.org/TR/2001/REC-SVG-20010904/DTD/svg10.dtd">
<svg version="1.0" xmlns="http://www.w3.org/2000/svg"
 width="1502.000000pt" height="1698.000000pt" viewBox="0 0 1502.000000 1698.000000"
 preserveAspectRatio="xMidYMid meet">

<g transform="translate(0.000000,1698.000000) scale(0.100000,-0.100000)"
fill="#000000" stroke="none">
<path d="M10795 14990 c-260 -47 -476 -241 -563 -505 -22 -69 -26 -97 -26
-205 -1 -104 3 -138 23 -200 79 -253 258 -432 503 -500 332 -93 683 63 841
375 54 108 72 189 71 330 -1 116 -4 138 -29 210 -84 237 -241 394 -470 470
-88 30 -257 42 -350 25z"/>
<path d="M8209 14449 c-58 -9 -106 -40 -144 -93 -24 -33 -30 -53 -33 -107 -5
-84 9 -128 57 -176 21 -21 217 -148 436 -283 218 -135 449 -278 513 -317 125
-79 163 -89 222 -58 38 20 50 43 50 101 0 42 -4 51 -47 93 -46 46 -302 281
-523 481 -58 52 -162 147 -231 211 -69 64 -135 121 -147 128 -35 18 -103 27
-153 20z"/>
<path d="M10029 13652 c-53 -81 -145 -221 -204 -312 -180 -277 -251 -387 -388
-598 -73 -111 -188 -289 -257 -395 -68 -105 -179 -275 -245 -377 -67 -102
-149 -228 -183 -280 -43 -67 -58 -97 -49 -102 7 -4 37 -15 67 -24 30 -9 60
-19 65 -24 6 -4 30 -14 55 -22 69 -23 311 -135 445 -206 159 -84 342 -199 472
-295 58 -43 107 -76 109 -74 3 2 23 49 45 103 23 55 63 153 91 219 27 66 74
181 104 255 31 74 62 149 69 165 8 17 46 109 86 205 91 225 165 403 230 560
28 69 71 172 94 230 58 143 125 305 175 425 65 155 110 266 110 269 0 1 -51 2
-112 2 -216 0 -387 72 -534 225 -54 57 -119 146 -129 179 -4 11 -9 20 -13 20
-4 -1 -50 -67 -103 -148z m287 -504 c163 -88 263 -271 236 -433 -15 -91 -52
-165 -114 -231 -64 -67 -143 -110 -232 -124 -100 -16 -180 0 -309 63 l-108 52
90 140 c49 77 127 199 172 270 168 263 189 295 197 295 5 0 35 -14 68 -32z
m-491 -850 c39 -23 88 -50 109 -62 67 -36 150 -124 187 -201 33 -68 34 -74 34
-190 0 -115 -1 -123 -32 -186 -80 -163 -231 -261 -404 -261 -96 -1 -139 14
-339 113 l-159 79 111 172 c61 95 126 197 144 226 19 28 49 76 68 105 174 270
165 259 189 252 12 -4 54 -25 92 -47z"/>
<path d="M7685 13561 c-92 -41 -140 -119 -139 -227 0 -62 4 -78 30 -120 36
-59 80 -89 199 -137 90 -37 145 -59 330 -137 106 -44 202 -84 350 -145 93 -38
170 -70 240 -99 22 -9 49 -21 60 -26 113 -51 146 -60 185 -50 55 15 90 60 90
117 0 25 -7 57 -16 71 -8 15 -77 67 -152 116 -75 50 -222 146 -327 214 -104
69 -275 181 -380 249 -104 69 -202 133 -216 143 -74 52 -178 64 -254 31z"/>
<path d="M11204 12566 c-44 -20 -64 -52 -64 -107 0 -56 22 -88 77 -112 118
-50 474 -197 480 -197 3 0 24 -9 47 -20 23 -11 97 -42 166 -70 132 -54 219
-90 285 -120 22 -9 51 -21 65 -25 14 -4 31 -12 38 -18 8 -6 44 -11 80 -11 147
-1 244 106 229 253 -11 101 -80 172 -193 196 -120 26 -736 157 -824 175 -390
81 -344 74 -386 56z"/>
<path d="M10738 11889 c-37 -14 -68 -67 -68 -117 0 -56 29 -87 152 -162 57
-34 132 -80 168 -102 413 -260 842 -520 872 -529 121 -34 241 21 294 136 32
67 31 130 -2 200 -45 94 -40 92 -589 301 -82 31 -184 70 -225 86 -41 16 -97
37 -125 47 -55 20 -199 76 -314 122 -76 30 -117 34 -163 18z"/>
<path d="M8447 11222 c-93 -141 -227 -347 -298 -457 -72 -110 -166 -256 -211
-325 -79 -122 -120 -185 -246 -381 -34 -53 -62 -98 -62 -102 0 -3 15 -8 33
-12 39 -8 290 -91 332 -110 323 -143 436 -200 633 -323 146 -92 325 -219 440
-314 46 -37 87 -68 91 -68 7 0 16 18 72 154 l33 79 -44 39 c-116 101 -349 264
-525 365 -120 70 -406 210 -462 227 -13 4 -23 11 -23 16 0 8 74 123 385 605
18 28 79 122 136 210 58 88 118 182 134 208 27 44 33 48 60 43 41 -8 212 -92
323 -159 117 -70 281 -185 402 -282 52 -41 98 -74 103 -72 5 1 20 30 34 62 13
33 32 78 42 100 38 83 40 77 -52 149 -194 151 -482 328 -697 428 -58 27 -113
53 -123 59 -32 18 -308 119 -325 119 -11 0 -78 -94 -185 -258z"/>
<path d="M6220 9913 c-415 -16 -946 -138 -1335 -308 -741 -324 -1344 -829
-1777 -1490 -315 -481 -532 -1057 -603 -1600 -8 -60 -20 -148 -27 -195 -17
-113 -18 -668 -1 -765 7 -38 19 -122 27 -185 20 -147 38 -243 77 -399 36 -146
141 -465 176 -534 63 -126 236 -129 298 -5 23 47 18 97 -19 189 -188 470 -276
1057 -236 1580 30 387 107 726 245 1078 296 752 841 1391 1545 1809 98 58 315
168 410 207 36 15 83 35 105 45 22 10 51 21 65 24 14 4 34 11 45 16 141 60
635 181 635 155 0 -4 -36 -76 -79 -159 -43 -83 -111 -214 -151 -291 -40 -77
-111 -214 -157 -305 -47 -91 -124 -239 -171 -330 -87 -169 -181 -351 -282
-545 -32 -60 -99 -191 -150 -290 -282 -548 -468 -907 -659 -1275 -174 -334
-252 -497 -261 -549 -24 -128 -7 -234 52 -321 44 -67 123 -129 144 -114 11 8
275 321 414 493 65 80 502 608 704 851 173 209 271 327 455 550 56 69 154 186
216 260 112 134 409 492 948 1146 155 188 284 340 286 338 3 -3 -113 -237
-259 -519 -42 -82 -132 -258 -200 -390 -205 -402 -449 -878 -620 -1210 -48
-93 -143 -278 -210 -410 -67 -132 -162 -316 -210 -410 -48 -93 -138 -269 -200
-390 -62 -121 -155 -303 -207 -405 -53 -102 -137 -266 -188 -365 -51 -99 -148
-288 -215 -420 -68 -132 -155 -303 -195 -380 -40 -77 -130 -252 -200 -390 -70
-137 -167 -326 -215 -420 -155 -300 -168 -329 -175 -376 -13 -91 28 -176 113
-230 38 -24 57 -29 109 -29 74 0 122 21 168 72 36 39 22 15 175 313 67 132
157 308 200 390 43 83 129 251 192 375 227 443 342 667 423 825 45 88 133 259
195 380 62 121 156 306 210 410 54 105 144 280 200 390 56 110 146 286 200
390 54 105 150 294 215 420 115 225 209 408 405 790 54 105 146 285 205 400
59 116 151 296 205 400 238 464 306 596 430 840 73 143 135 264 139 268 12 13
289 -114 393 -179 l39 -25 -122 -237 c-186 -362 -294 -574 -429 -837 -67 -132
-167 -325 -220 -430 -134 -260 -271 -528 -408 -795 -63 -124 -156 -306 -207
-405 -115 -224 -256 -499 -415 -810 -67 -132 -157 -307 -200 -390 -117 -226
-264 -514 -395 -770 -126 -246 -261 -510 -410 -800 -51 -99 -148 -288 -215
-420 -68 -132 -160 -312 -205 -400 -169 -328 -185 -364 -189 -404 -4 -47 23
-114 56 -141 13 -10 86 -41 163 -69 226 -80 312 -105 470 -137 39 -8 86 -19
105 -25 75 -21 394 -60 579 -70 145 -9 247 -9 405 0 189 10 475 44 589 71 427
100 661 182 994 348 442 222 837 523 1171 892 172 190 377 471 479 657 31 57
35 70 31 119 -5 64 -28 99 -84 131 -48 28 -93 29 -142 4 -47 -24 -53 -32 -140
-171 -202 -323 -439 -599 -727 -846 -350 -301 -827 -568 -1250 -698 -49 -16
-99 -32 -110 -37 -32 -13 -260 -66 -380 -88 -327 -60 -661 -74 -980 -41 -115
12 -275 34 -355 50 -163 32 -329 75 -342 88 -5 5 23 70 63 148 176 344 295
576 404 789 65 127 159 311 210 410 142 277 271 529 395 770 245 479 450 879
563 1098 33 64 64 117 70 117 5 0 82 -38 170 -84 89 -46 266 -136 392 -201
127 -65 293 -150 370 -190 685 -353 772 -395 823 -395 130 0 232 102 232 232
0 64 -26 122 -71 164 -19 17 -144 88 -279 157 -389 198 -652 333 -840 429 -96
50 -267 138 -380 196 -113 58 -207 106 -208 108 -4 2 201 407 403 799 88 171
233 453 390 760 65 127 162 318 217 425 55 107 152 296 216 420 63 124 118
229 123 234 26 29 452 -379 631 -604 91 -115 187 -254 293 -425 47 -75 143
-260 186 -358 62 -141 64 -144 107 -267 139 -389 212 -810 212 -1217 0 -182
-24 -477 -51 -618 -12 -60 -19 -128 -16 -151 9 -82 72 -136 157 -136 60 0 109
23 137 65 25 38 58 202 73 367 6 63 15 151 21 195 15 108 6 500 -15 700 -69
660 -309 1294 -698 1850 -311 444 -778 882 -1228 1149 -100 60 -321 172 -415
211 -81 34 -313 114 -407 141 -96 27 -97 27 -143 10 -47 -19 -78 -54 -709
-816 -66 -80 -163 -196 -215 -259 -53 -63 -199 -238 -324 -390 -125 -152 -288
-348 -362 -436 -73 -88 -292 -351 -485 -585 -593 -716 -668 -805 -691 -825
l-23 -20 21 35 c23 40 75 137 158 295 32 61 132 250 223 420 90 171 186 351
212 400 26 50 105 198 175 330 70 132 147 276 170 320 23 44 75 140 114 213
39 74 71 136 71 139 0 2 17 35 38 71 22 37 68 123 104 192 36 69 143 271 238
450 225 422 230 433 230 473 0 69 -62 145 -127 156 -21 3 -67 5 -103 4z"/>
<path d="M11320 9532 c-145 -73 -201 -118 -233 -189 -100 -224 -101 -763 -1
-1238 34 -163 68 -273 119 -380 78 -166 128 -209 252 -219 273 -24 424 124
482 471 18 105 20 175 23 643 l3 525 -28 92 c-27 92 -69 177 -110 222 -72 78
-187 121 -321 121 -89 0 -94 -1 -186 -48z m300 -225 c64 -32 47 -115 -28 -130
l-42 -8 0 -75 c0 -41 1 -74 3 -75 1 0 25 -3 52 -5 28 -3 54 -9 59 -14 17 -17
-7 -30 -55 -30 -35 0 -49 -4 -49 -14 0 -26 52 -210 65 -230 13 -20 36 -123 39
-176 1 -14 9 -36 19 -50 23 -33 22 -59 -5 -87 l-21 -23 21 -23 c26 -27 29 -79
6 -101 -8 -9 -19 -16 -24 -16 -4 0 -11 -11 -14 -25 -9 -34 -53 -72 -93 -80
-18 -3 -33 -10 -33 -15 0 -5 22 -21 49 -34 36 -19 56 -38 75 -72 31 -55 50
-163 35 -201 -16 -43 -34 -20 -40 53 -10 117 -38 171 -96 189 l-23 6 0 -145
c0 -81 -4 -147 -9 -151 -21 -12 -31 39 -31 159 0 129 -2 136 -40 116 -38 -20
-63 -78 -69 -164 -5 -63 -9 -81 -21 -81 -20 0 -25 77 -10 149 13 61 58 122
107 142 46 20 43 42 -8 50 -33 6 -47 15 -70 47 -16 22 -39 45 -52 51 -31 16
-36 75 -7 101 25 23 26 42 0 50 -28 9 -28 78 -1 97 10 8 21 25 23 38 1 14 11
26 21 28 13 3 17 -3 17 -25 0 -16 9 -36 20 -46 11 -9 20 -27 20 -40 0 -13 -9
-32 -20 -42 -11 -10 -20 -24 -20 -31 0 -7 9 -18 20 -24 24 -13 28 -75 6 -99
-11 -13 -12 -19 -3 -32 15 -19 50 -39 71 -39 27 0 20 57 -10 83 -48 42 -43
211 7 237 11 6 19 21 19 35 0 34 28 32 41 -2 6 -16 18 -36 27 -46 13 -14 17
-39 17 -107 0 -78 -3 -91 -22 -112 -29 -31 -32 -88 -4 -88 25 0 71 38 71 58 0
9 -7 26 -15 36 -21 27 -19 62 5 86 23 23 26 50 7 50 -8 0 -19 10 -24 23 -12
25 -2 53 25 73 21 15 10 143 -16 193 -11 20 -27 63 -36 95 -15 52 -19 57 -39
51 -95 -29 -174 -9 -195 48 -7 21 -12 93 -12 188 0 135 2 158 20 186 11 19 31
35 47 39 15 3 33 7 38 9 28 9 183 3 205 -8z"/>
<path d="M11389 9269 c-31 -11 -39 -33 -39 -106 0 -42 3 -53 16 -53 29 0 54
21 54 45 0 26 33 55 62 55 14 0 18 8 18 35 0 35 0 35 -42 34 -24 0 -55 -5 -69
-10z"/>
<path d="M11540 9245 c0 -33 2 -35 34 -35 36 0 51 18 41 51 -5 14 -16 19 -41
19 -32 0 -34 -2 -34 -35z"/>
<path d="M11460 9151 c-5 -11 -10 -26 -10 -35 0 -8 -22 -25 -50 -37 -40 -18
-50 -27 -50 -46 0 -23 3 -24 63 -22 98 4 97 3 97 69 0 32 -3 65 -6 74 -8 22
-31 20 -44 -3z"/>
<path d="M11357 8964 c-3 -3 -4 -11 -2 -17 2 -7 6 -24 9 -39 8 -34 46 -43 110
-27 45 11 46 12 46 50 l0 39 -78 0 c-43 0 -81 -3 -85 -6z"/>
<path d="M11477 8462 c-9 -10 -17 -28 -17 -40 0 -19 4 -21 33 -15 42 8 42 9
31 40 -12 34 -26 38 -47 15z"/>
<path d="M11627 8474 c-14 -15 -6 -34 14 -34 14 0 19 5 17 17 -3 18 -20 27
-31 17z"/>
<path d="M11330 8460 c-11 -7 -12 -12 -3 -21 15 -15 48 -7 48 11 0 18 -24 24
-45 10z"/>
<path d="M11460 8349 c0 -31 19 -59 39 -59 21 0 31 19 31 56 0 21 -5 24 -35
24 -29 0 -35 -4 -35 -21z"/>
<path d="M11621 8326 c-9 -10 -8 -16 4 -26 19 -15 47 3 38 26 -7 18 -27 18
-42 0z"/>
<path d="M11343 8323 c-7 -3 -13 -14 -13 -25 0 -14 6 -19 22 -16 13 2 24 10
26 19 3 18 -15 29 -35 22z"/>
</g>
</svg>
